<svg viewBox="0 0 920 680" xmlns="http://www.w3.org/2000/svg" font-family="Arial, sans-serif" style="background:#0f1117">
<defs>
  <marker id="ar"    markerWidth="6" markerHeight="6" refX="5" refY="3" orient="auto"><polygon points="0,0 6,3 0,6" fill="#94a3b8"/></marker>
  <marker id="ar_r"  markerWidth="6" markerHeight="6" refX="5" refY="3" orient="auto"><polygon points="0,0 6,3 0,6" fill="#ef4444"/></marker>
  <marker id="ar_r5" markerWidth="6" markerHeight="6" refX="5" refY="3" orient="auto"><polygon points="0,0 6,3 0,6" fill="#f97316"/></marker>
  <marker id="ar_g"  markerWidth="6" markerHeight="6" refX="5" refY="3" orient="auto"><polygon points="0,0 6,3 0,6" fill="#4ade80"/></marker>
  <marker id="ar_y"  markerWidth="6" markerHeight="6" refX="5" refY="3" orient="auto"><polygon points="0,0 6,3 0,6" fill="#facc15"/></marker>
  <marker id="ar_b"  markerWidth="6" markerHeight="6" refX="5" refY="3" orient="auto"><polygon points="0,0 6,3 0,6" fill="#60a5fa"/></marker>
  <marker id="ar_o"  markerWidth="6" markerHeight="6" refX="5" refY="3" orient="auto"><polygon points="0,0 6,3 0,6" fill="#fb923c"/></marker>
  <marker id="ar_c"  markerWidth="6" markerHeight="6" refX="5" refY="3" orient="auto"><polygon points="0,0 6,3 0,6" fill="#22d3ee"/></marker>
  <marker id="ar_p"  markerWidth="6" markerHeight="6" refX="5" refY="3" orient="auto"><polygon points="0,0 6,3 0,6" fill="#c084fc"/></marker>
  <marker id="ar_pk" markerWidth="6" markerHeight="6" refX="5" refY="3" orient="auto"><polygon points="0,0 6,3 0,6" fill="#f472b6"/></marker>
  <marker id="ar_w"  markerWidth="6" markerHeight="6" refX="5" refY="3" orient="auto"><polygon points="0,0 6,3 0,6" fill="#e2e8f0"/></marker>
</defs>

<text x="460" y="24" text-anchor="middle" font-size="14" font-weight="bold" fill="#7dd3fc">ESP32-S3 + HX711 + PN5180 (OpenPrintTag ISO 15693) + Buzzer</text>

<!-- ESP32-S3 -->
<rect x="330" y="40" width="230" height="460" rx="10" fill="#1e3a5f" stroke="#3b82f6" stroke-width="2"/>
<rect x="346" y="53" width="198" height="22" rx="4" fill="#1d4ed8"/>
<text x="445" y="68" text-anchor="middle" font-size="11" font-weight="bold" fill="#bfdbfe">ESP32-S3 DevKitC-1</text>
<rect x="415" y="475" width="60" height="14" rx="7" fill="#1d4ed8" stroke="#60a5fa"/>
<text x="445" y="486" text-anchor="middle" font-size="9" fill="#bfdbfe">USB-C</text>

<!-- LINKE PINS -->
<rect x="330" y="92"  width="42" height="18" rx="3" fill="#374151" stroke="#ef4444"/><text x="351" y="105" text-anchor="middle" font-size="9" fill="#ef4444">3V3</text><text x="326" y="105" text-anchor="end" font-size="9" fill="#94a3b8">3.3V</text>
<rect x="330" y="116" width="42" height="18" rx="3" fill="#374151" stroke="#6b7280"/><text x="351" y="129" text-anchor="middle" font-size="9" fill="#e2e8f0">GND</text><text x="326" y="129" text-anchor="end" font-size="9" fill="#94a3b8">GND</text>
<rect x="330" y="140" width="42" height="18" rx="3" fill="#374151" stroke="#f97316"/><text x="351" y="153" text-anchor="middle" font-size="9" fill="#f97316">5V</text><text x="326" y="153" text-anchor="end" font-size="9" fill="#f97316">5V ANT</text>
<rect x="330" y="164" width="42" height="18" rx="3" fill="#374151" stroke="#fb923c"/><text x="351" y="177" text-anchor="middle" font-size="9" fill="#fb923c">IO2</text><text x="326" y="177" text-anchor="end" font-size="9" fill="#fb923c">Buzzer</text>
<rect x="330" y="188" width="42" height="18" rx="3" fill="#374151" stroke="#4ade80"/><text x="351" y="201" text-anchor="middle" font-size="9" fill="#4ade80">IO4</text><text x="326" y="201" text-anchor="end" font-size="9" fill="#4ade80">HX DOUT</text>
<rect x="330" y="212" width="42" height="18" rx="3" fill="#374151" stroke="#4ade80"/><text x="351" y="225" text-anchor="middle" font-size="9" fill="#4ade80">IO5</text><text x="326" y="225" text-anchor="end" font-size="9" fill="#4ade80">HX SCK</text>
<rect x="330" y="280" width="42" height="18" rx="3" fill="#374151" stroke="#6b7280"/><text x="351" y="293" text-anchor="middle" font-size="9" fill="#94a3b8">IO16</text><text x="326" y="293" text-anchor="end" font-size="9" fill="#94a3b8">DFP-RX</text>
<rect x="330" y="304" width="42" height="18" rx="3" fill="#374151" stroke="#6b7280"/><text x="351" y="317" text-anchor="middle" font-size="9" fill="#94a3b8">IO17</text><text x="326" y="317" text-anchor="end" font-size="9" fill="#94a3b8">DFP-TX</text>
<rect x="330" y="365" width="42" height="18" rx="3" fill="#374151" stroke="#6b7280"/><text x="351" y="378" text-anchor="middle" font-size="9" fill="#e2e8f0">GND</text><text x="326" y="378" text-anchor="end" font-size="9" fill="#94a3b8">GND</text>

<!-- RECHTE PINS -->
<rect x="518" y="92"  width="42" height="18" rx="3" fill="#374151" stroke="#22d3ee"/><text x="539" y="105" text-anchor="middle" font-size="9" fill="#22d3ee">IO10</text><text x="564" y="105" text-anchor="start" font-size="9" fill="#22d3ee">NSS/CS</text>
<rect x="518" y="116" width="42" height="18" rx="3" fill="#374151" stroke="#60a5fa"/><text x="539" y="129" text-anchor="middle" font-size="9" fill="#60a5fa">IO35</text><text x="564" y="129" text-anchor="start" font-size="9" fill="#60a5fa">MOSI</text>
<rect x="518" y="140" width="42" height="18" rx="3" fill="#374151" stroke="#facc15"/><text x="539" y="153" text-anchor="middle" font-size="9" fill="#facc15">IO36</text><text x="564" y="153" text-anchor="start" font-size="9" fill="#facc15">SCK</text>
<rect x="518" y="164" width="42" height="18" rx="3" fill="#374151" stroke="#fb923c"/><text x="539" y="177" text-anchor="middle" font-size="9" fill="#fb923c">IO37</text><text x="564" y="177" text-anchor="start" font-size="9" fill="#fb923c">MISO</text>
<rect x="518" y="188" width="42" height="18" rx="3" fill="#374151" stroke="#c084fc"/><text x="539" y="201" text-anchor="middle" font-size="9" fill="#c084fc">IO38</text><text x="564" y="201" text-anchor="start" font-size="9" fill="#c084fc">BUSY</text>
<rect x="518" y="212" width="42" height="18" rx="3" fill="#374151" stroke="#f472b6"/><text x="539" y="225" text-anchor="middle" font-size="9" fill="#f472b6">IO39</text><text x="564" y="225" text-anchor="start" font-size="9" fill="#f472b6">RST</text>
<rect x="518" y="355" width="42" height="18" rx="3" fill="#374151" stroke="#ef4444"/><text x="539" y="368" text-anchor="middle" font-size="9" fill="#ef4444">3V3</text><text x="564" y="368" text-anchor="start" font-size="9" fill="#ef4444">3.3V</text>
<rect x="518" y="379" width="42" height="18" rx="3" fill="#374151" stroke="#6b7280"/><text x="539" y="392" text-anchor="middle" font-size="9" fill="#e2e8f0">GND</text><text x="564" y="392" text-anchor="start" font-size="9" fill="#94a3b8">GND</text>

<!-- HX711 -->
<rect x="28" y="50" width="148" height="140" rx="8" fill="#14532d" stroke="#4ade80" stroke-width="1.5"/>
<text x="102" y="72" text-anchor="middle" font-size="13" font-weight="bold" fill="#86efac">HX711</text>
<rect x="40" y="82"  width="40" height="16" rx="3" fill="#166534" stroke="#ef4444"/><text x="60" y="94"  text-anchor="middle" font-size="9" fill="#ef4444">VCC</text>
<rect x="40" y="103" width="40" height="16" rx="3" fill="#166534" stroke="#6b7280"/><text x="60" y="115" text-anchor="middle" font-size="9" fill="#94a3b8">GND</text>
<rect x="40" y="124" width="40" height="16" rx="3" fill="#166534" stroke="#4ade80"/><text x="60" y="136" text-anchor="middle" font-size="9" fill="#4ade80">DT</text>
<rect x="40" y="145" width="40" height="16" rx="3" fill="#166534" stroke="#86efac"/><text x="60" y="157" text-anchor="middle" font-size="9" fill="#86efac">SCK</text>
<rect x="98" y="82"  width="62" height="16" rx="3" fill="#166534" stroke="#ef4444"/><text x="129" y="94"  text-anchor="middle" font-size="9" fill="#ef4444">E+ rot</text>
<rect x="98" y="103" width="62" height="16" rx="3" fill="#166534" stroke="#60a5fa"/><text x="129" y="115" text-anchor="middle" font-size="9" fill="#60a5fa">E- blau</text>
<rect x="98" y="124" width="62" height="16" rx="3" fill="#166534" stroke="#4ade80"/><text x="129" y="136" text-anchor="middle" font-size="9" fill="#4ade80">A+ gruen</text>
<rect x="98" y="145" width="62" height="16" rx="3" fill="#166534" stroke="#e2e8f0"/><text x="129" y="157" text-anchor="middle" font-size="9" fill="#e2e8f0">A- weiss</text>

<!-- Waegezelle -->
<rect x="28" y="250" width="148" height="75" rx="8" fill="#292524" stroke="#78716c" stroke-width="1.5"/>
<text x="102" y="271" text-anchor="middle" font-size="12" font-weight="bold" fill="#d4d4d4">Waegezelle</text>
<text x="102" y="287" text-anchor="middle" font-size="9" fill="#a8a29e">max. 2 kg</text>
<text x="102" y="302" text-anchor="middle" font-size="8" fill="#78716c">rot / blau / gruen / weiss</text>
<text x="102" y="315" text-anchor="middle" font-size="8" fill="#78716c">4 Kabel direkt zu HX711</text>

<!-- Waegezelle zu HX711 -->
<line x1="100" y1="250" x2="109" y2="195" stroke="#ef4444" stroke-width="1.8" marker-end="url(#ar_r)"/>
<line x1="106" y1="250" x2="115" y2="195" stroke="#60a5fa" stroke-width="1.8" marker-end="url(#ar_b)"/>
<line x1="112" y1="250" x2="121" y2="195" stroke="#4ade80" stroke-width="1.8" marker-end="url(#ar_g)"/>
<line x1="118" y1="250" x2="127" y2="195" stroke="#e2e8f0" stroke-width="1.8" marker-end="url(#ar_w)"/>

<!-- Buzzer -->
<rect x="28" y="390" width="148" height="65" rx="8" fill="#1c0a00" stroke="#fb923c" stroke-width="1.5"/>
<text x="102" y="411" text-anchor="middle" font-size="12" font-weight="bold" fill="#fb923c">Buzzer</text>
<rect x="42" y="420" width="40" height="16" rx="3" fill="#1c0a00" stroke="#fb923c"/><text x="62" y="432" text-anchor="middle" font-size="9" fill="#fb923c">Signal</text>
<rect x="100" y="420" width="40" height="16" rx="3" fill="#1c0a00" stroke="#6b7280"/><text x="120" y="432" text-anchor="middle" font-size="9" fill="#94a3b8">GND</text>

<!-- PN5180 -->
<rect x="748" y="40" width="148" height="260" rx="8" fill="#0f2d1a" stroke="#22c55e" stroke-width="1.5"/>
<text x="822" y="62" text-anchor="middle" font-size="13" font-weight="bold" fill="#4ade80">PN5180</text>
<text x="822" y="76" text-anchor="middle" font-size="8" fill="#22c55e">ISO 15693 / NFC-V</text>
<text x="822" y="89" text-anchor="middle" font-size="8" fill="#166534">OpenPrintTag kompatibel</text>

<rect x="760" y="98"  width="40" height="16" rx="3" fill="#14532d" stroke="#ef4444"/><text x="780" y="110" text-anchor="middle" font-size="9" fill="#ef4444">3.3V</text><text x="804" y="110" text-anchor="start" font-size="9" fill="#94a3b8">Logik</text>
<rect x="760" y="119" width="40" height="16" rx="3" fill="#14532d" stroke="#f97316"/><text x="780" y="131" text-anchor="middle" font-size="9" fill="#f97316">5V</text><text x="804" y="131" text-anchor="start" font-size="9" fill="#f97316">HF Antenne</text>
<rect x="760" y="140" width="40" height="16" rx="3" fill="#14532d" stroke="#6b7280"/><text x="780" y="152" text-anchor="middle" font-size="9" fill="#94a3b8">GND</text>
<rect x="760" y="161" width="40" height="16" rx="3" fill="#14532d" stroke="#22d3ee"/><text x="780" y="173" text-anchor="middle" font-size="9" fill="#22d3ee">NSS</text><text x="804" y="173" text-anchor="start" font-size="9" fill="#94a3b8">Chip Select</text>
<rect x="760" y="182" width="40" height="16" rx="3" fill="#14532d" stroke="#60a5fa"/><text x="780" y="194" text-anchor="middle" font-size="9" fill="#60a5fa">MOSI</text>
<rect x="760" y="203" width="40" height="16" rx="3" fill="#14532d" stroke="#facc15"/><text x="780" y="215" text-anchor="middle" font-size="9" fill="#facc15">SCK</text>
<rect x="760" y="224" width="40" height="16" rx="3" fill="#14532d" stroke="#fb923c"/><text x="780" y="236" text-anchor="middle" font-size="9" fill="#fb923c">MISO</text>
<rect x="760" y="245" width="40" height="16" rx="3" fill="#14532d" stroke="#c084fc"/><text x="780" y="257" text-anchor="middle" font-size="9" fill="#c084fc">BUSY</text>
<rect x="760" y="266" width="40" height="16" rx="3" fill="#14532d" stroke="#f472b6"/><text x="780" y="278" text-anchor="middle" font-size="9" fill="#f472b6">RST</text>

<!-- NFC Antenne Symbol -->
<ellipse cx="822" cy="310" rx="28" ry="12" fill="none" stroke="#22c55e" stroke-width="1.5"/>
<ellipse cx="822" cy="310" rx="20" ry="8"  fill="none" stroke="#22c55e" stroke-width="1"/>
<ellipse cx="822" cy="310" rx="12" ry="5"  fill="none" stroke="#22c55e" stroke-width="0.8"/>
<text x="822" y="340" text-anchor="middle" font-size="8" fill="#22c55e">NFC Antenne</text>
<text x="822" y="352" text-anchor="middle" font-size="7" fill="#166534">ICODE SLIX / SLIX2</text>

<!-- VERBINDER: HX711 VCC = 3V3 ESP links -->
<polyline points="80,82 80,44 282,44 282,101 330,101" fill="none" stroke="#ef4444" stroke-width="1.8" marker-end="url(#ar_r)"/>
<!-- VERBINDER: HX711 GND = GND ESP links -->
<polyline points="60,119 54,119 54,40 287,40 287,125 330,125" fill="none" stroke="#94a3b8" stroke-width="1.8" marker-end="url(#ar)"/>
<!-- VERBINDER: HX711 DT = IO4 -->
<polyline points="60,140 46,140 46,355 200,355 200,197 330,197" fill="none" stroke="#4ade80" stroke-width="1.8" marker-end="url(#ar_g)"/>
<!-- VERBINDER: HX711 SCK = IO5 -->
<polyline points="60,161 41,161 41,364 195,364 195,221 330,221" fill="none" stroke="#86efac" stroke-width="1.8" stroke-dasharray="7,3" marker-end="url(#ar_g)"/>

<!-- VERBINDER: Buzzer Signal = IO2 -->
<polyline points="62,428 35,428 35,375 185,375 185,173 330,173" fill="none" stroke="#fb923c" stroke-width="1.8" marker-end="url(#ar_o)"/>
<!-- VERBINDER: Buzzer GND = GND links -->
<polyline points="120,428 120,455 308,455 308,374 330,374" fill="none" stroke="#94a3b8" stroke-width="1.8" marker-end="url(#ar)"/>

<!-- VERBINDER: PN5180 3.3V = ESP 3V3 rechts -->
<polyline points="760,106 625,106 625,364 560,364" fill="none" stroke="#ef4444" stroke-width="1.8" marker-end="url(#ar_r)"/>
<!-- VERBINDER: PN5180 5V = ESP 5V links (Antenne!) -->
<polyline points="760,127 618,127 618,36 284,36 284,149 330,149" fill="none" stroke="#f97316" stroke-width="2" marker-end="url(#ar_r5)"/>
<!-- VERBINDER: PN5180 GND = ESP GND rechts -->
<polyline points="760,148 630,148 630,388 560,388" fill="none" stroke="#94a3b8" stroke-width="1.8" marker-end="url(#ar)"/>
<!-- VERBINDER: PN5180 NSS = IO10 -->
<polyline points="760,169 715,169 715,101 560,101" fill="none" stroke="#22d3ee" stroke-width="1.8" marker-end="url(#ar_c)"/>
<!-- VERBINDER: PN5180 MOSI = IO35 -->
<polyline points="760,190 720,190 720,125 560,125" fill="none" stroke="#60a5fa" stroke-width="1.8" marker-end="url(#ar_b)"/>
<!-- VERBINDER: PN5180 SCK = IO36 -->
<polyline points="760,211 725,211 725,149 560,149" fill="none" stroke="#facc15" stroke-width="1.8" marker-end="url(#ar_y)"/>
<!-- VERBINDER: PN5180 MISO = IO37 -->
<polyline points="760,232 730,232 730,173 560,173" fill="none" stroke="#fb923c" stroke-width="1.8" marker-end="url(#ar_o)"/>
<!-- VERBINDER: PN5180 BUSY = IO38 -->
<polyline points="760,253 735,253 735,197 560,197" fill="none" stroke="#c084fc" stroke-width="1.8" marker-end="url(#ar_p)"/>
<!-- VERBINDER: PN5180 RST = IO39 -->
<polyline points="760,274 740,274 740,221 560,221" fill="none" stroke="#f472b6" stroke-width="1.8" marker-end="url(#ar_pk)"/>

<!-- LEGENDE -->
<rect x="28" y="490" width="868" height="180" rx="10" fill="#111827" stroke="#374151"/>
<text x="462" y="511" text-anchor="middle" font-size="12" font-weight="bold" fill="#7dd3fc">Pinbelegung und Legende</text>

<text x="52"  y="531" font-size="10" font-weight="bold" fill="#4ade80">HX711</text>
<text x="52"  y="545" font-size="9" fill="#94a3b8">VCC  - 3.3V (ESP links)</text>
<text x="52"  y="558" font-size="9" fill="#94a3b8">GND  - GND</text>
<text x="52"  y="571" font-size="9" fill="#94a3b8">DT   - GPIO 4</text>
<text x="52"  y="584" font-size="9" fill="#94a3b8">SCK  - GPIO 5</text>
<text x="52"  y="600" font-size="9" fill="#78716c">Waegezelle: 4 Kabel</text>
<text x="52"  y="612" font-size="9" fill="#78716c">direkt an HX711 Klemmen</text>

<text x="232" y="531" font-size="10" font-weight="bold" fill="#4ade80">PN5180 (SPI + ISO 15693)</text>
<text x="232" y="545" font-size="9" fill="#94a3b8">3.3V - 3.3V  (Logik)</text>
<text x="232" y="558" font-size="9" fill="#f97316">5V   - 5V   (HF-Antenne!)</text>
<text x="232" y="571" font-size="9" fill="#94a3b8">GND  - GND</text>
<text x="232" y="584" font-size="9" fill="#94a3b8">NSS  - GPIO 10  (CS)</text>
<text x="232" y="597" font-size="9" fill="#94a3b8">MOSI - GPIO 35</text>
<text x="232" y="610" font-size="9" fill="#94a3b8">SCK  - GPIO 36</text>
<text x="232" y="623" font-size="9" fill="#94a3b8">MISO - GPIO 37</text>
<text x="232" y="636" font-size="9" fill="#94a3b8">BUSY - GPIO 38</text>
<text x="232" y="649" font-size="9" fill="#94a3b8">RST  - GPIO 39</text>

<text x="452" y="531" font-size="10" font-weight="bold" fill="#fb923c">Sonstiges</text>
<text x="452" y="545" font-size="9" fill="#fb923c">Buzzer Signal - GPIO 2</text>
<text x="452" y="558" font-size="9" fill="#94a3b8">Buzzer GND   - GND</text>
<text x="452" y="574" font-size="9" fill="#94a3b8">DFPlayer TX  - GPIO 16</text>
<text x="452" y="587" font-size="9" fill="#94a3b8">DFPlayer RX  - GPIO 17</text>
<text x="452" y="600" font-size="9" fill="#94a3b8">DFPlayer VCC - 5V</text>
<text x="452" y="613" font-size="9" fill="#94a3b8">DFPlayer GND - GND</text>

<text x="660" y="531" font-size="10" font-weight="bold" fill="#22c55e">OpenPrintTag Tags</text>
<text x="660" y="545" font-size="9" fill="#94a3b8">NXP ICODE SLIX  (112 Byte)</text>
<text x="660" y="558" font-size="9" fill="#94a3b8">NXP ICODE SLIX2 (320 Byte)</text>
<text x="660" y="574" font-size="9" fill="#f87171">Kein MIFARE / NTAG!</text>
<text x="660" y="590" font-size="9" fill="#78716c">Leseabstand: bis 20cm</text>
<text x="660" y="606" font-size="9" fill="#64748b">Format: CBOR in NDEF</text>
<text x="660" y="622" font-size="9" fill="#64748b">MIME: application/vnd</text>
<text x="660" y="634" font-size="9" fill="#64748b">     .openprinttag</text>

<line x1="812" y1="545" x2="860" y2="545" stroke="#f97316" stroke-width="2.5"/>
<text x="812" y="542" font-size="8" fill="#f97316">5V = Antenne</text>
<line x1="812" y1="562" x2="860" y2="562" stroke="#ef4444" stroke-width="2"/>
<text x="812" y="559" font-size="8" fill="#ef4444">3.3V = Logik</text>
<line x1="812" y1="579" x2="860" y2="579" stroke="#94a3b8" stroke-width="2"/>
<text x="812" y="576" font-size="8" fill="#94a3b8">GND</text>
<line x1="812" y1="596" x2="860" y2="596" stroke="#4ade80" stroke-width="2"/>
<text x="812" y="593" font-size="8" fill="#4ade80">HX711 Data</text>
<line x1="812" y1="613" x2="860" y2="613" stroke="#22d3ee" stroke-width="2"/>
<text x="812" y="610" font-size="8" fill="#22d3ee">SPI Signale</text>
<line x1="812" y1="630" x2="860" y2="630" stroke="#4ade80" stroke-width="2" stroke-dasharray="5,3"/>
<text x="812" y="627" font-size="8" fill="#64748b">gestrichelt = SCK</text>
</svg>
